<?xml version="1.0" standalone="no"?>
<!DOCTYPE svg PUBLIC "-//W3C//DTD SVG 20010904//EN"
 "http://www.w3.org/TR/2001/REC-SVG-20010904/DTD/svg10.dtd">
<svg version="1.0" xmlns="http://www.w3.org/2000/svg"
 width="397.000000pt" height="120.000000pt" viewBox="0 0 397.000000 120.000000"
 preserveAspectRatio="xMidYMid meet">
<metadata>
Created by potrace 1.16, written by Peter Selinger 2001-2019
</metadata>
<g transform="translate(0.000000,120.000000) scale(0.100000,-0.100000)"
fill="#000000" stroke="none">
<path d="M0 600 l0 -600 1985 0 1985 0 0 600 0 600 -1985 0 -1985 0 0 -600z
m2104 4 c19 -18 17 -4 19 -209 1 -134 -1 -160 -13 -160 -11 0 -15 13 -16 45
-1 25 -4 86 -8 135 -14 191 -24 200 -62 55 -13 -51 -42 -64 -76 -33 -20 18
-18 26 -22 -97 -1 -43 -5 -55 -18 -58 -25 -5 -32 51 -23 172 4 55 7 108 8 116
0 19 16 40 31 40 7 0 20 -25 30 -55 9 -30 21 -55 26 -55 5 0 17 15 26 33 17
34 63 87 75 87 4 0 15 -7 23 -16z m240 6 c53 -20 86 -140 61 -225 -20 -72 -56
-105 -110 -105 -36 0 -48 5 -68 30 -14 16 -31 46 -37 66 -28 85 16 223 75 235
45 10 52 10 79 -1z m155 -7 c5 -10 14 -61 20 -113 13 -107 20 -140 30 -140 3
0 26 46 51 101 39 90 61 121 75 107 3 -3 -8 -29 -24 -59 -16 -30 -35 -83 -41
-117 -17 -98 -25 -112 -59 -112 -31 0 -29 -3 -56 95 -19 70 -39 220 -32 239 8
21 24 20 36 -1z m577 -3 c50 0 64 -3 64 -15 0 -12 -13 -15 -59 -15 -33 0 -62
-3 -64 -7 -10 -17 9 -98 22 -95 22 5 52 -9 48 -21 -2 -7 -17 -14 -33 -17 -27
-5 -29 -8 -32 -57 l-3 -52 52 -3 c31 -2 54 -8 57 -15 6 -20 -154 -18 -162 2
-7 19 2 284 10 297 3 5 13 7 21 4 8 -3 44 -6 79 -6z m274 -19 c0 -5 -13 -11
-30 -14 -46 -10 -160 -127 -122 -127 4 0 29 7 56 15 46 14 52 14 86 -4 21 -11
48 -17 62 -14 14 3 29 0 32 -6 4 -7 -1 -11 -13 -11 -29 0 -88 -56 -96 -91 -7
-31 -54 -59 -102 -59 -56 0 -27 63 55 115 62 41 55 63 -13 39 -60 -21 -102
-18 -108 6 -13 49 134 191 175 169 10 -5 18 -13 18 -18z m-452 3 c39 -8 19
-29 -31 -32 -43 -3 -47 -5 -47 -30 -1 -15 -8 -54 -16 -87 -25 -97 -29 -90 58
-90 80 0 94 -5 85 -28 -3 -9 -29 -16 -75 -20 -38 -4 -88 -14 -112 -22 -54 -19
-89 -19 -97 0 -7 20 -1 26 39 34 33 7 33 7 43 87 5 44 10 96 10 115 0 30 -3
34 -30 37 -35 4 -50 15 -43 34 4 10 29 12 99 10 52 -1 104 -5 117 -8z"/>
<path d="M2286 581 c-27 -30 -46 -89 -46 -145 0 -44 5 -60 26 -86 37 -43 71
-38 102 15 19 33 22 50 19 101 -5 66 -24 105 -61 122 -19 9 -27 7 -40 -7z"/>
</g>
</svg>
