<?xml version="1.0" standalone="no"?>
<!DOCTYPE svg PUBLIC "-//W3C//DTD SVG 20010904//EN"
 "http://www.w3.org/TR/2001/REC-SVG-20010904/DTD/svg10.dtd">
<svg version="1.0" xmlns="http://www.w3.org/2000/svg"
 width="398.000000pt" height="120.000000pt" viewBox="0 0 398.000000 120.000000"
 preserveAspectRatio="xMidYMid meet">
<metadata>
Created by potrace 1.16, written by Peter Selinger 2001-2019
</metadata>
<g transform="translate(0.000000,120.000000) scale(0.080242,-0.080000)"
fill="#000000" stroke="none">
<path d="M0 750 l0 -750 2480 0 2480 0 0 750 0 750 -2480 0 -2480 0 0 -750z
m2626 -1 c16 -18 19 -42 22 -212 2 -112 0 -202 -6 -217 l-10 -25 -5 25 c-3 14
-11 98 -17 187 -6 90 -15 175 -21 190 -10 26 -11 27 -24 10 -8 -11 -23 -49
-34 -87 -26 -86 -42 -100 -82 -76 -17 10 -33 15 -36 12 -4 -3 -9 -47 -12 -98
-4 -58 -10 -93 -18 -95 -21 -7 -26 45 -20 205 4 118 9 158 20 170 21 21 31 11
56 -58 12 -33 28 -60 34 -60 7 0 21 15 31 33 25 42 85 117 95 117 4 0 16 -9
27 -21z m326 -16 c79 -75 74 -270 -7 -342 -49 -43 -114 -44 -151 -3 -47 49
-59 82 -59 162 0 175 120 276 217 183z m189 -114 c10 -68 18 -131 19 -140 0
-8 6 -24 14 -35 14 -18 19 -11 69 96 77 160 120 214 57 70 -16 -37 -39 -109
-51 -160 -18 -78 -25 -93 -46 -103 -22 -10 -28 -8 -43 11 -33 40 -92 355 -76
398 6 16 8 16 23 2 10 -10 22 -61 34 -139z m726 125 c62 -8 61 -24 -1 -24 -24
0 -58 -3 -75 -6 -35 -7 -40 -28 -19 -95 8 -29 17 -39 32 -39 12 0 28 -5 36
-10 12 -7 7 -12 -21 -24 -43 -18 -49 -31 -49 -96 0 -52 9 -59 75 -60 17 0 37
-5 45 -10 17 -11 -137 -15 -164 -4 -13 5 -16 26 -16 129 0 67 3 150 6 184 l7
61 46 0 c25 0 70 -3 98 -6z m288 -27 c-62 -20 -175 -123 -175 -159 0 -12 40
-9 93 7 44 13 52 13 98 -5 27 -11 64 -20 82 -20 l32 -1 -30 -13 c-34 -15 -105
-89 -105 -109 0 -21 -41 -53 -83 -67 -106 -34 -81 48 40 132 26 17 43 37 43
48 0 24 -10 24 -74 5 -141 -43 -164 2 -59 115 67 73 118 103 148 87 19 -10 18
-11 -10 -20z m-536 7 c33 -7 18 -17 -42 -29 l-51 -10 -22 -105 c-34 -159 -40
-146 71 -152 53 -3 99 -8 102 -12 15 -14 -18 -28 -102 -41 -49 -8 -113 -22
-143 -31 -59 -17 -102 -12 -102 11 0 8 17 19 40 25 51 14 55 24 69 169 13 122
8 141 -33 141 -12 0 -31 6 -42 14 -18 14 -18 15 6 25 24 10 194 6 249 -5z"/>
<path d="M2852 727 c-47 -49 -72 -164 -52 -237 26 -96 97 -117 154 -47 29 37
31 44 30 120 0 90 -15 131 -60 166 -34 27 -45 26 -72 -2z"/>
</g>
</svg>
