<?xml version="1.0" standalone="no"?>
<!DOCTYPE svg PUBLIC "-//W3C//DTD SVG 20010904//EN"
 "http://www.w3.org/TR/2001/REC-SVG-20010904/DTD/svg10.dtd">
<svg version="1.0" xmlns="http://www.w3.org/2000/svg"
 width="600.000000pt" height="600.000000pt" viewBox="0 0 600.000000 600.000000"
 preserveAspectRatio="xMidYMid meet">

<g transform="translate(0.000000,600.000000) scale(0.100000,-0.100000)"
fill="#000000" stroke="none">
<path d="M0 3000 l0 -3000 3000 0 3000 0 0 3000 0 3000 -3000 0 -3000 0 0
-3000z m3539 133 c6 -21 13 -69 17 -108 11 -130 32 -175 49 -108 3 15 10 30
14 33 3 3 20 36 35 73 16 38 35 74 42 80 44 40 44 40 160 35 63 -2 119 -9 125
-15 15 -15 0 -23 -50 -28 -55 -5 -58 -8 -59 -60 0 -25 -5 -51 -10 -58 -5 -7
-13 -33 -16 -59 -8 -55 -15 -51 94 -52 60 -1 75 -4 78 -17 2 -13 -13 -18 -87
-28 -49 -6 -113 -19 -141 -28 -37 -12 -57 -14 -68 -7 -29 19 -23 31 20 42 l44
11 12 103 c17 147 17 148 -16 148 -15 0 -33 5 -39 11 -8 8 -19 -3 -42 -42 -32
-55 -40 -79 -59 -183 -6 -32 -17 -64 -23 -72 -14 -17 -43 -18 -57 -1 -14 16
-50 151 -58 214 -18 151 -18 153 4 153 16 0 24 -9 31 -37z m-595 -35 c12 -31
24 -60 28 -63 3 -3 19 18 36 47 37 67 55 82 86 74 33 -8 37 -34 32 -200 -3
-94 0 -145 7 -157 9 -15 8 -22 -5 -36 -26 -25 -33 -9 -34 75 -1 82 -12 226
-20 255 -10 33 -23 17 -46 -55 -28 -87 -47 -102 -83 -68 l-25 23 -1 -34 c-1
-19 -1 -57 1 -85 1 -36 -3 -54 -14 -64 -21 -17 -27 -10 -36 42 -8 42 -7 61 6
208 10 117 34 130 68 38z m437 52 c46 -25 76 -154 53 -231 -40 -134 -161 -159
-221 -46 -26 49 -23 170 5 224 12 23 30 47 39 52 23 14 99 14 124 1z m787 0
c46 0 52 -2 52 -21 0 -20 -4 -21 -65 -17 l-65 4 0 -57 0 -58 38 -3 c46 -4 45
-20 -2 -32 -33 -9 -36 -13 -36 -45 0 -72 6 -79 63 -77 42 1 52 -2 55 -16 3
-16 -6 -18 -77 -18 -70 0 -82 3 -91 20 -11 21 -13 240 -3 299 5 32 7 33 42 27
20 -3 60 -6 89 -6z m270 -2 c18 -18 14 -28 -11 -28 -38 0 -117 -62 -144 -114
l-15 -29 29 7 c82 18 123 18 147 2 14 -9 41 -16 61 -16 19 0 35 -4 35 -10 0
-5 -11 -10 -25 -10 -30 0 -78 -45 -102 -96 -15 -30 -27 -40 -67 -52 -45 -15
-49 -15 -62 2 -11 16 -10 23 13 53 14 19 46 45 70 59 23 14 43 32 43 40 0 18
-38 18 -70 -1 -62 -35 -126 -4 -99 48 24 45 71 96 116 126 51 34 63 37 81 19z
m-3610 -560 c29 -29 7 -78 -35 -78 -21 0 -23 5 -23 45 0 40 2 45 23 45 13 0
28 -5 35 -12z m191 -10 c12 -31 -2 -62 -28 -66 -28 -4 -51 14 -51 42 0 47 63
66 79 24z m121 5 c1 -16 2 -16 15 1 15 20 15 20 30 0 13 -17 14 -17 15 -1 0 9
7 17 16 17 10 0 14 -6 10 -17 -3 -10 -8 -30 -12 -45 -6 -29 -28 -37 -38 -15
-5 10 -7 10 -12 0 -10 -22 -32 -14 -38 15 -4 15 -9 35 -12 45 -4 11 0 17 10
17 9 0 16 -8 16 -17z m219 0 c9 -17 10 -17 16 0 13 33 33 18 36 -27 l4 -44
-47 1 c-45 1 -48 3 -48 28 0 54 20 75 39 42z m181 -18 c0 -19 5 -35 10 -35 6
0 10 -4 10 -10 0 -5 -11 -10 -25 -10 -23 0 -25 4 -25 45 0 33 4 45 15 45 10 0
15 -11 15 -35z m199 13 c12 -31 -2 -62 -28 -66 -28 -4 -51 14 -51 42 0 47 63
66 79 24z m165 -18 c20 -49 20 -50 1 -50 -8 0 -15 5 -15 10 0 6 -7 10 -15 10
-8 0 -15 -4 -15 -10 0 -5 -6 -10 -14 -10 -11 0 -11 8 3 45 9 25 21 45 27 45 7
0 19 -18 28 -40z m164 28 c29 -29 7 -78 -35 -78 -21 0 -23 5 -23 45 0 40 2 45
23 45 13 0 28 -5 35 -12z m292 2 c0 -5 -8 -10 -17 -10 -16 0 -16 -2 -3 -11 11
-8 12 -12 3 -16 -7 -2 -13 -13 -13 -24 0 -10 -7 -19 -15 -19 -11 0 -15 12 -15
45 0 43 1 45 30 45 17 0 30 -4 30 -10z m120 -26 c0 -21 4 -33 10 -29 6 3 10
19 10 36 0 16 5 29 11 29 6 0 9 -17 7 -42 -3 -37 -7 -44 -27 -46 -29 -4 -41
12 -41 56 0 22 5 32 15 32 11 0 15 -11 15 -36z m170 1 c0 -19 5 -35 10 -35 6
0 10 -4 10 -10 0 -5 -11 -10 -25 -10 -23 0 -25 4 -25 45 0 33 4 45 15 45 10 0
15 -11 15 -35z m150 0 c0 -19 5 -35 10 -35 6 0 10 -4 10 -10 0 -5 -11 -10 -25
-10 -23 0 -25 4 -25 45 0 33 4 45 15 45 10 0 15 -11 15 -35z m270 20 c0 -8 5
-15 10 -15 6 0 10 7 10 15 0 8 5 15 10 15 6 0 10 -20 10 -45 0 -25 -4 -45 -10
-45 -5 0 -10 9 -10 20 0 11 -4 20 -10 20 -5 0 -10 -9 -10 -20 0 -11 -7 -20
-15 -20 -11 0 -15 12 -15 45 0 33 4 45 15 45 8 0 15 -7 15 -15z m198 3 c29
-29 7 -78 -35 -78 -21 0 -23 5 -23 45 0 40 2 45 23 45 13 0 28 -5 35 -12z
m271 -5 c9 -17 10 -17 16 0 13 33 33 18 36 -27 l4 -44 -47 1 c-45 1 -48 3 -48
28 0 54 20 75 39 42z m230 -5 c12 -31 -2 -62 -28 -66 -28 -4 -51 14 -51 42 0
47 63 66 79 24z m125 0 l7 -23 11 23 c6 12 17 22 24 22 10 0 9 -10 -4 -45 -19
-51 -36 -57 -50 -17 -5 15 -13 35 -17 45 -5 12 -2 17 8 17 8 0 18 -10 21 -22z
m176 -23 c0 -33 -4 -45 -15 -45 -11 0 -15 12 -15 45 0 33 4 45 15 45 11 0 15
-12 15 -45z m150 35 c0 -5 -8 -11 -17 -11 -17 -1 -17 -2 0 -6 21 -5 23 -23 2
-23 -8 0 -15 -4 -15 -10 0 -5 7 -10 15 -10 8 0 15 -4 15 -10 0 -5 -11 -10 -25
-10 -23 0 -25 4 -25 45 0 41 2 45 25 45 14 0 25 -4 25 -10z m155 0 c3 -5 -2
-10 -11 -10 -16 0 -16 -1 1 -20 9 -10 15 -26 12 -35 -9 -21 -57 -20 -57 1 0
10 6 14 15 10 20 -7 19 4 -2 19 -9 7 -14 19 -10 29 7 18 42 22 52 6z m275 0
c0 -5 -6 -10 -12 -10 -9 0 -8 -4 2 -11 11 -8 12 -12 3 -16 -7 -2 -13 -13 -13
-24 0 -10 -7 -19 -15 -19 -11 0 -15 12 -15 45 0 41 2 45 25 45 14 0 25 -4 25
-10z m156 -26 c1 -17 4 -36 7 -42 5 -6 -6 -10 -28 -10 -35 0 -35 0 -35 45 0
42 1 44 28 41 23 -2 27 -8 28 -34z m164 26 c0 -5 -8 -11 -17 -11 -17 -1 -17
-2 0 -6 21 -5 23 -23 2 -23 -8 0 -15 -4 -15 -10 0 -5 7 -10 15 -10 8 0 15 -4
15 -10 0 -5 -11 -10 -25 -10 -23 0 -25 4 -25 45 0 41 2 45 25 45 14 0 25 -4
25 -10z m150 0 c0 -5 -8 -11 -17 -11 -17 -1 -17 -2 0 -6 21 -5 23 -23 2 -23
-8 0 -15 -4 -15 -10 0 -5 7 -10 15 -10 8 0 15 -4 15 -10 0 -5 -11 -10 -25 -10
-23 0 -25 4 -25 45 0 41 2 45 25 45 14 0 25 -4 25 -10z"/>
<path d="M3294 3115 c-49 -74 -56 -158 -19 -220 29 -50 56 -60 89 -34 66 52
72 185 11 246 -40 40 -59 41 -81 8z"/>
<path d="M4348 2861 c-32 -28 -34 -49 -5 -38 19 7 61 67 48 67 -6 0 -25 -13
-43 -29z"/>
<path d="M800 2555 c0 -15 4 -24 10 -20 6 3 10 12 10 20 0 8 -4 17 -10 20 -6
4 -10 -5 -10 -20z"/>
<path d="M963 2564 c-8 -21 13 -42 28 -27 13 13 5 43 -11 43 -6 0 -13 -7 -17
-16z"/>
<path d="M1683 2564 c-8 -21 13 -42 28 -27 13 13 5 43 -11 43 -6 0 -13 -7 -17
-16z"/>
<path d="M2040 2555 c0 -15 4 -24 10 -20 6 3 10 12 10 20 0 8 -4 17 -10 20 -6
4 -10 -5 -10 -20z"/>
<path d="M3240 2555 c0 -15 4 -24 10 -20 6 3 10 12 10 20 0 8 -4 17 -10 20 -6
4 -10 -5 -10 -20z"/>
<path d="M3713 2564 c-8 -21 13 -42 28 -27 13 13 5 43 -11 43 -6 0 -13 -7 -17
-16z"/>
</g>
</svg>
